<svg width="800" height="800" viewBox="0 0 64 64" xmlns="http://www.w3.org/2000/svg">
<path d="m15.38 57.49 10.23-8.11-.33-5.52-.6-4.34-5.4-.78-4.3 17.85c-.05.35.1.7.39.9Z" fill="#0acffb"/>
<path d="m5.11 25.88 13.04 7.2 2.98-1.99 3.36-3-.35-4.28-18.3 1.43c-.35.06-.64.31-.73.65Z" fill="#6df4c0"/>
<path d="m19.29 38.75 6 5.11 5.88-3.16.83-6.08L27.12 30l-5.98 1.09-16.03-5.21c-.12.33-.04.7.21.95l13.97 11.91Z" fill="#9af6d3"/>
<path d="m48.64 57.53-2.7-9.24-7.23-4.43-3.87-.82-2.85 4.94 15.65 9.61c.32.18.71.16 1-.06Z" fill="#fdda5c"/>
<path d="m44.71 38.75.12-5.4-1.96-2.26-5.39-1.48-5.47 5.01 1.28 6.31 5.43 2.94 9.93 13.67c.3-.21.44-.58.37-.93l-4.3-17.85Z" fill="#fce87b"/>
<path d="m58.93 25.87-10.23.78-5.84 4.44 1.85 7.66 13.97-11.91c.27-.24.37-.62.25-.97Z" fill="#d6b1ed"/>
<path d="M39.85 23.81c-3.16-3.56-5.62-2.78-7.85-.61l-2.78 5.56L32 34.62l10.86-3.53 16.07-5.22a.889.889 0 0 0-.77-.63l-18.3-1.43Z" fill="#e5c9f3"/>
<path d="m32 6.35-2.58 12.54L32 23.21l7.85.61-7.01-16.97a.9.9 0 0 0-.84-.49Z" fill="#fd91ba"/>
<path d="M31.65 6.35c-.22.09-.4.27-.49.49l-7.01 16.97-3.01 7.28L32 34.62V6.35c-.12-.02-.23-.02-.35 0Z" fill="#ffa6c5"/>
<path d="m32 47.98 6.71-4.12L32 34.62l-6.71 9.24-9.9 13.63c.28.22.66.25.97.1l15.65-9.61Z" fill="#62d9fa"/>
<path d="m58.93 25.87-15.14 9.05-.92-3.83 16.07-5.22Z" fill="#ca96e5"/>
<path d="M48.64 57.53 35.35 45.92l3.36-2.06 9.93 13.67Z" fill="#f8c228"/>
<path d="m15.36 57.53 6.93-16.22 3 2.55-9.93 13.67Z" fill="#00bff8"/>
<path d="m5.07 25.87 17.57 1.58-1.5 3.64-16.07-5.22Z" fill="#3aedbc"/>
<path d="m32 6.3 3.93 17.2-3.93-.3V6.3Z" fill="#fc76a8"/>
<path d="m58.24 24.24-17.69-1.38-6.78-16.4c-.4-.97-1.53-1.44-2.5-1.04-.47.2-.84.56-1.04 1.04l-6.78 16.4-17.69 1.38c-.51.04-.97.28-1.31.66-.33.39-.49.88-.45 1.39.04.5.28.98.67 1.31l13.5 11.51-4.16 17.25c-.25 1.03.39 2.06 1.41 2.31.49.12 1.02.03 1.45-.23l15.12-9.29 15.12 9.29c.92.56 2.09.26 2.63-.63.27-.44.35-.95.23-1.45l-4.16-17.25 13.5-11.51c.8-.68.9-1.89.21-2.7-.33-.38-.8-.63-1.31-.67ZM55.32 26 33 33.25v-8.97l22.32 1.71Zm-17.01-3.31L33 22.28V9.84l5.31 12.85ZM31 9.84v23.41l-8.53-2.77 2.6-6.28L31 9.85ZM20.57 29.86 8.74 26.02l13.86-1.08-2.03 4.92ZM8.07 27.9l22.31 7.25-5.27 7.25L8.07 27.89Zm11.81 12.67 4.05 3.46-7.31 10.06 3.26-13.52Zm-1.67 14.74L32 36.33l5.27 7.25-19.06 11.73ZM38.45 45.2l7.31 10.06-11.85-7.27 4.54-2.79Zm8.96 8.93L33.62 35.15l8.53-2.77 5.27 21.75Zm-2.11-17.2-1.25-5.18 11.82-3.84-10.58 9.02Z"/>
</svg>