<?xml version="1.0" standalone="no"?>
<!DOCTYPE svg PUBLIC "-//W3C//DTD SVG 20010904//EN"
 "http://www.w3.org/TR/2001/REC-SVG-20010904/DTD/svg10.dtd">
<svg version="1.0" xmlns="http://www.w3.org/2000/svg"
 width="900.000000pt" height="900.000000pt" viewBox="0 0 900.000000 900.000000"
 preserveAspectRatio="xMidYMid meet">
<metadata>
Created by potrace 1.10, written by Peter Selinger 2001-2011
</metadata>
<g transform="translate(0.000000,900.000000) scale(0.100000,-0.100000)"
fill="#000000" stroke="none">
<path d="M4454 7781 c-68 -48 -134 -153 -219 -346 -14 -33 -37 -71 -49 -85
-13 -14 -32 -50 -41 -80 -10 -30 -24 -64 -30 -75 -7 -11 -16 -33 -19 -48 -4
-15 -27 -70 -51 -121 -25 -51 -45 -99 -45 -107 -1 -18 -54 -126 -73 -148 -8
-9 -17 -27 -20 -41 -4 -14 -25 -50 -47 -80 -22 -30 -43 -66 -47 -80 -3 -14
-16 -36 -29 -50 -12 -14 -35 -52 -51 -85 -16 -33 -42 -80 -59 -105 -40 -59
-97 -173 -118 -236 -22 -66 -172 -361 -202 -397 -13 -16 -24 -33 -24 -39 0
-10 -36 -55 -104 -130 l-25 -28 -1303 0 c-1417 0 -1353 2 -1440 -55 -47 -31
-56 -63 -32 -118 23 -54 56 -91 119 -132 28 -18 66 -49 84 -69 19 -20 40 -36
46 -36 6 0 24 -13 41 -28 39 -38 113 -87 144 -97 14 -4 35 -16 47 -28 12 -11
31 -25 41 -31 73 -43 199 -132 246 -175 31 -28 61 -51 66 -51 6 0 29 -18 51
-40 23 -22 47 -40 55 -40 7 0 45 -30 84 -67 39 -38 79 -72 89 -78 10 -5 38
-27 63 -47 24 -21 62 -45 84 -54 21 -9 57 -33 80 -54 23 -21 52 -41 65 -45 32
-10 176 -121 189 -145 6 -10 45 -42 88 -71 42 -28 102 -75 132 -103 30 -29 76
-65 101 -81 37 -23 52 -41 77 -96 18 -37 32 -75 32 -83 0 -8 -16 -43 -35 -78
-34 -63 -69 -134 -128 -258 -16 -36 -35 -72 -41 -80 -7 -8 -22 -37 -33 -65
-77 -178 -97 -222 -113 -240 -20 -23 -150 -284 -150 -302 0 -7 -21 -51 -46
-100 -25 -48 -61 -126 -81 -173 -19 -47 -41 -96 -48 -110 -8 -14 -50 -101 -94
-195 -45 -93 -86 -177 -91 -185 -17 -27 -120 -240 -120 -248 0 -5 -10 -22 -23
-40 -13 -17 -29 -50 -37 -74 -7 -24 -39 -97 -71 -163 -33 -66 -59 -127 -59
-135 0 -8 -11 -37 -25 -64 -14 -27 -25 -65 -25 -84 0 -28 -10 -45 -45 -83 -49
-53 -56 -83 -26 -116 32 -34 79 -36 162 -9 90 30 130 50 154 76 10 11 23 20
30 20 6 0 27 12 46 26 19 14 63 44 98 67 35 23 82 54 105 70 22 15 54 35 70
45 16 9 43 29 60 43 17 14 60 39 96 54 36 16 76 38 90 50 14 12 56 37 93 55
38 18 94 50 125 72 32 21 77 52 102 69 25 16 55 36 67 45 12 9 35 23 51 33 16
9 63 39 105 66 42 28 100 64 128 80 28 17 76 51 107 78 30 26 61 47 69 47 8 0
31 18 53 40 22 22 45 40 53 40 7 0 26 13 41 29 15 16 40 31 55 34 16 3 48 21
72 39 52 40 224 128 249 128 9 0 34 13 55 30 21 17 41 30 46 30 4 0 20 11 35
25 15 14 32 25 39 25 6 0 41 20 78 45 37 25 71 45 75 45 5 0 24 14 42 30 18
17 38 30 43 30 5 0 29 18 53 40 24 22 50 40 57 40 8 0 22 10 33 21 10 12 46
34 79 49 34 15 67 35 74 44 14 17 108 68 150 81 12 4 39 18 60 32 29 20 43 23
76 18 22 -3 51 -17 65 -29 14 -13 40 -31 58 -40 17 -9 62 -46 99 -82 37 -36
82 -72 99 -79 18 -7 43 -27 56 -45 12 -17 50 -51 83 -75 33 -24 85 -67 115
-96 30 -28 71 -63 90 -78 20 -14 62 -48 94 -76 31 -27 64 -52 71 -55 8 -3 68
-57 132 -121 65 -64 127 -119 139 -123 11 -3 53 -40 93 -82 40 -41 90 -86 112
-100 22 -13 85 -70 142 -126 56 -55 116 -107 134 -114 17 -8 41 -27 53 -44 12
-16 28 -30 35 -30 8 0 30 -13 48 -30 19 -16 39 -30 44 -30 5 0 43 -27 84 -60
41 -33 92 -68 114 -79 22 -10 49 -28 59 -40 11 -12 25 -21 32 -21 7 0 30 -17
52 -38 37 -34 64 -53 132 -93 16 -8 42 -27 60 -42 17 -15 37 -27 44 -27 7 0
21 -10 32 -21 10 -12 39 -30 63 -41 24 -10 60 -31 80 -47 20 -16 63 -41 96
-56 32 -14 74 -37 92 -51 18 -14 59 -39 91 -55 31 -17 71 -43 87 -59 43 -40
88 -60 134 -60 37 0 42 4 76 54 l36 54 -21 39 c-11 21 -20 43 -20 50 0 7 -6
27 -14 45 -8 18 -22 60 -31 93 -9 33 -22 74 -30 90 -8 17 -19 48 -24 70 -5 22
-22 72 -36 110 -15 39 -30 84 -35 100 -35 123 -68 223 -91 273 -10 23 -19 52
-19 63 0 12 -8 33 -19 47 -34 50 -66 134 -89 242 -14 62 -66 206 -118 328 -8
18 -14 43 -14 55 0 12 -9 37 -20 55 -11 18 -20 42 -20 55 0 12 -7 33 -15 47
-37 65 -125 250 -125 262 0 8 -9 32 -21 53 -11 22 -33 78 -49 125 -33 100 -71
195 -105 266 -14 28 -25 55 -25 60 0 5 -9 20 -20 34 -11 14 -20 32 -20 40 0 8
-9 26 -20 40 -11 14 -20 36 -20 50 0 14 -7 36 -15 50 -50 89 -116 235 -113
253 2 13 12 23 23 25 11 2 43 25 70 51 28 26 70 60 95 75 55 33 101 64 162
111 25 19 49 35 52 35 7 0 96 58 136 88 14 11 39 26 56 35 17 9 38 27 47 41 9
13 32 29 52 36 19 6 40 20 45 31 10 18 123 99 138 99 4 0 23 13 42 28 19 15
63 42 98 60 35 17 87 48 116 67 29 19 62 35 73 35 10 0 32 14 48 30 16 17 34
30 40 30 7 0 20 9 31 21 10 12 35 30 54 40 37 21 88 55 130 87 14 11 43 29 65
40 22 11 66 42 99 69 32 26 73 57 90 68 86 53 103 65 136 89 19 15 63 45 96
69 34 23 81 56 104 72 24 17 94 78 155 138 62 59 119 107 128 107 21 0 27 22
27 93 -1 66 -20 101 -67 126 -16 8 -356 11 -1243 11 -1094 0 -1224 -2 -1252
-16 -26 -13 -73 -15 -320 -14 -189 0 -297 5 -313 12 -18 8 -40 43 -76 117 -28
58 -57 117 -64 131 -7 14 -30 57 -50 97 -20 40 -43 77 -51 83 -7 7 -27 42 -45
78 -17 37 -46 97 -65 133 -19 37 -34 74 -34 84 0 9 -13 43 -30 77 -16 33 -30
66 -30 74 0 8 -11 37 -25 64 -14 27 -25 56 -25 63 0 8 -11 35 -25 61 -14 26
-25 56 -25 67 0 20 -40 104 -72 151 -10 14 -18 37 -18 50 0 12 -8 39 -19 58
-10 19 -31 60 -46 90 -15 30 -55 110 -89 177 -33 68 -72 144 -85 170 -13 27
-32 72 -42 100 -10 29 -31 72 -47 95 -35 51 -102 184 -102 202 0 6 -15 27 -33
44 l-33 32 -40 -29z"/>
</g>
</svg>
